<svg width="1973" height="1117" viewBox="0 0 1973 1117" fill="none" xmlns="http://www.w3.org/2000/svg">
<rect width="1973" height="1117" fill="url(#paint0_linear_506_18)"/>
<path d="M402.252 694.04H349.042C347.13 694.04 345.478 693.339 344.087 691.936C342.696 690.534 342 688.869 342 686.941V517.099C342 515.171 342.696 513.506 344.087 512.103C345.478 510.701 347.13 510 349.042 510H402.252C404.164 510 405.816 510.701 407.207 512.103C408.599 513.506 409.294 515.171 409.294 517.099V686.941C409.294 688.869 408.599 690.534 407.207 691.936C405.816 693.339 404.164 694.04 402.252 694.04Z" fill="#1C1C34"/>
<path d="M485.377 510H638.223C640.136 510 641.788 510.701 643.179 512.103C644.57 513.506 645.265 515.171 645.265 517.099V559.428C645.265 561.356 644.57 563.021 643.179 564.423C641.788 565.825 640.136 566.526 638.223 566.526H594.925V686.941C594.925 688.869 594.23 690.534 592.839 691.936C591.448 693.339 589.796 694.04 587.883 694.04H535.717C533.804 694.04 532.152 693.339 530.761 691.936C529.37 690.534 528.675 688.869 528.675 686.941V566.526H485.377C483.464 566.526 481.812 565.825 480.421 564.423C479.03 563.021 478.334 561.356 478.334 559.428V517.099C478.334 515.171 479.03 513.506 480.421 512.103C481.812 510.701 483.464 510 485.377 510Z" fill="#1C1C34"/>
<path d="M555.901 853.103H636.236C638.149 853.103 639.801 853.804 641.192 855.206C642.583 856.608 643.279 858.273 643.279 860.201V897.272C643.279 899.2 642.583 900.865 641.192 902.268C639.801 903.67 638.149 904.371 636.236 904.371H500.344C498.431 904.371 496.779 903.67 495.388 902.268C493.997 900.865 493.302 899.2 493.302 897.272V727.43C493.302 725.502 493.997 723.837 495.388 722.434C496.779 721.032 498.431 720.331 500.344 720.331H634.15C636.062 720.331 637.714 721.032 639.105 722.434C640.497 723.837 641.192 725.502 641.192 727.43V764.501C641.192 766.429 640.497 768.094 639.105 769.496C637.714 770.898 636.062 771.599 634.15 771.599H555.901V788.163H628.411C630.324 788.163 631.976 788.864 633.367 790.266C634.758 791.668 635.454 793.334 635.454 795.262V829.44C635.454 831.368 634.758 833.034 633.367 834.436C631.976 835.838 630.324 836.539 628.411 836.539H555.901V853.103Z" fill="#1C1C34"/>
<path d="M731.781 720.331H788.382C794.641 720.331 798.554 723.223 800.119 729.007L858.284 896.746C858.458 897.272 858.545 898.149 858.545 899.375C858.545 900.427 857.936 901.566 856.719 902.793C855.676 903.845 854.371 904.371 852.806 904.371H804.553C799.336 904.371 795.946 902.18 794.381 897.798L788.121 880.446H732.042L725.782 897.798C724.217 902.18 720.827 904.371 715.61 904.371H667.357C665.792 904.371 664.4 903.845 663.183 902.793C662.14 901.566 661.618 900.427 661.618 899.375C661.618 898.149 661.705 897.272 661.879 896.746L720.044 729.007C721.609 723.223 725.522 720.331 731.781 720.331ZM745.345 829.177H774.818L759.951 780.275L745.345 829.177Z" fill="#1C1C34"/>
<path d="M942.051 790.266V834.436C942.051 848.633 948.485 855.732 961.352 855.732C971.264 855.732 977.785 850.999 980.915 841.534C981.784 838.555 982.827 836.539 984.045 835.487C985.436 834.436 987.609 833.91 990.565 833.91H1043.77C1045.34 833.91 1046.64 834.523 1047.69 835.75C1048.9 836.802 1049.51 838.117 1049.51 839.694C1049.51 854.943 1045.17 867.738 1036.47 878.079C1020.47 897.36 995.521 907 961.613 907C935.009 907 913.794 901.128 897.971 889.385C882.147 877.466 874.235 859.237 874.235 834.699V790.003C874.235 765.99 882.321 747.937 898.492 735.843C914.664 723.749 935.704 717.702 961.613 717.702C995.521 717.702 1020.47 727.342 1036.47 746.622C1045.17 756.964 1049.51 769.759 1049.51 785.008C1049.51 786.585 1048.9 787.988 1047.69 789.215C1046.64 790.266 1045.34 790.792 1043.77 790.792H990.565C987.783 790.792 985.696 790.266 984.305 789.215C983.088 788.163 981.958 786.147 980.915 783.168C977.611 773.703 971.09 768.97 961.352 768.97C948.485 768.97 942.051 776.069 942.051 790.266Z" fill="#1C1C34"/>
<path d="M1188.81 720.331H1239.94C1241.85 720.331 1243.5 721.032 1244.89 722.434C1246.28 723.837 1246.98 725.502 1246.98 727.43V897.272C1246.98 899.2 1246.28 900.865 1244.89 902.268C1243.5 903.67 1241.85 904.371 1239.94 904.371H1188.81C1186.9 904.371 1185.25 903.67 1183.86 902.268C1182.47 900.865 1181.77 899.2 1181.77 897.272V840.483H1139.52V897.272C1139.52 899.2 1138.82 900.865 1137.43 902.268C1136.04 903.67 1134.39 904.371 1132.48 904.371H1081.35C1079.44 904.371 1077.79 903.757 1076.4 902.53C1075.01 901.128 1074.31 899.375 1074.31 897.272V727.43C1074.31 725.502 1075.01 723.837 1076.4 722.434C1077.79 721.032 1079.44 720.331 1081.35 720.331H1132.48C1134.39 720.331 1136.04 721.032 1137.43 722.434C1138.82 723.837 1139.52 725.502 1139.52 727.43V782.642H1181.77V727.43C1181.77 725.502 1182.47 723.837 1183.86 722.434C1185.25 721.032 1186.9 720.331 1188.81 720.331Z" fill="#1C1C34"/>
<path d="M1343.48 853.103H1423.82C1425.73 853.103 1427.38 853.804 1428.78 855.206C1430.17 856.608 1430.86 858.273 1430.86 860.201V897.272C1430.86 899.2 1430.17 900.865 1428.78 902.268C1427.38 903.67 1425.73 904.371 1423.82 904.371H1287.93C1286.01 904.371 1284.36 903.67 1282.97 902.268C1281.58 900.865 1280.89 899.2 1280.89 897.272V727.43C1280.89 725.502 1281.58 723.837 1282.97 722.434C1284.36 721.032 1286.01 720.331 1287.93 720.331H1421.73C1423.65 720.331 1425.3 721.032 1426.69 722.434C1428.08 723.837 1428.78 725.502 1428.78 727.43V764.501C1428.78 766.429 1428.08 768.094 1426.69 769.496C1425.3 770.898 1423.65 771.599 1421.73 771.599H1343.48V788.163H1415.99C1417.91 788.163 1419.56 788.864 1420.95 790.266C1422.34 791.668 1423.04 793.334 1423.04 795.262V829.44C1423.04 831.368 1422.34 833.034 1420.95 834.436C1419.56 835.838 1417.91 836.539 1415.99 836.539H1343.48V853.103Z" fill="#1C1C34"/>
<path d="M1630.22 895.695C1630.74 896.746 1631 897.886 1631 899.113C1631 900.339 1630.39 901.566 1629.17 902.793C1628.13 903.845 1626.83 904.371 1625.26 904.371H1571.79C1566.4 904.371 1562.66 902.005 1560.58 897.272L1538.14 847.056H1527.45V897.272C1527.45 899.2 1526.76 900.865 1525.36 902.268C1523.97 903.67 1522.32 904.371 1520.41 904.371H1469.29C1467.37 904.371 1465.72 903.67 1464.33 902.268C1462.94 900.865 1462.24 899.2 1462.24 897.272V727.43C1462.24 725.502 1462.94 723.837 1464.33 722.434C1465.72 721.032 1467.37 720.331 1469.29 720.331H1546.49C1571.53 720.331 1591.09 726.028 1605.18 737.421C1619.26 748.638 1626.31 764.851 1626.31 786.06C1626.31 807.093 1616.92 823.656 1598.14 835.75L1630.22 895.695ZM1527.45 769.233V797.102H1546.49C1550.32 797.102 1553.27 795.875 1555.36 793.421C1557.45 790.792 1558.49 787.549 1558.49 783.693C1558.49 779.837 1557.45 776.507 1555.36 773.703C1553.45 770.723 1550.49 769.233 1546.49 769.233H1527.45Z" fill="#1C1C34"/>
<path fill-rule="evenodd" clip-rule="evenodd" d="M350.202 694.146H403.426C405.339 694.146 406.992 693.45 408.383 692.059C409.775 690.667 410.47 689.015 410.47 687.102V518.56C410.47 516.647 409.775 514.995 408.383 513.603C406.992 512.212 405.339 511.516 403.426 511.516H350.202C348.289 511.516 346.637 512.212 345.245 513.603C343.854 514.995 343.158 516.647 343.158 518.56V687.102C343.158 689.015 343.854 690.667 345.245 692.059C346.637 693.45 348.289 694.146 350.202 694.146ZM639.461 511.516H486.574C484.66 511.516 483.008 512.212 481.616 513.603C480.225 514.995 479.529 516.647 479.529 518.56V560.565C479.529 562.479 480.225 564.131 481.616 565.522C483.008 566.914 484.66 567.61 486.574 567.61H529.883V687.102C529.883 689.015 530.579 690.667 531.97 692.059C533.361 693.45 535.014 694.146 536.927 694.146H589.107C591.02 694.146 592.673 693.45 594.064 692.059C595.456 690.667 596.151 689.015 596.151 687.102V567.61H639.461C641.374 567.61 643.026 566.914 644.418 565.522C645.809 564.131 646.505 562.479 646.505 560.565V518.56C646.505 516.647 645.809 514.995 644.418 513.603C643.026 512.212 641.374 511.516 639.461 511.516ZM557.116 851.99H637.473C639.387 851.99 641.039 852.686 642.43 854.077C643.822 855.469 644.518 857.121 644.518 859.034V895.821C644.518 897.735 643.822 899.387 642.43 900.778C641.039 902.17 639.387 902.866 637.473 902.866H501.545C499.631 902.866 497.979 902.17 496.588 900.778C495.196 899.387 494.5 897.735 494.5 895.821V727.28C494.5 725.367 495.196 723.714 496.588 722.323C497.979 720.932 499.631 720.236 501.545 720.236H635.386C637.299 720.236 638.952 720.932 640.343 722.323C641.735 723.714 642.43 725.367 642.43 727.28V764.067C642.43 765.98 641.735 767.633 640.343 769.024C638.952 770.415 637.299 771.111 635.386 771.111H557.116V787.548H629.646C631.56 787.548 633.212 788.244 634.603 789.635C635.995 791.027 636.691 792.679 636.691 794.592V828.509C636.691 830.422 635.995 832.075 634.603 833.466C633.212 834.858 631.56 835.553 629.646 835.553H557.116V851.99Z" fill="#4E4CCC"/>
<path d="M1906 1072L1926 1052M1926 1052V1072M1926 1052H1906" stroke="black" stroke-linecap="round" stroke-linejoin="round"/>
<path d="M311.2 264C310.027 264 309.067 263.627 308.32 262.88C307.573 262.133 307.2 261.173 307.2 260V156C307.2 154.827 307.573 153.867 308.32 153.12C309.067 152.373 310.027 152 311.2 152H360C369.173 152 376.693 153.28 382.56 155.84C388.427 158.4 392.747 162.08 395.52 166.88C398.4 171.573 399.84 177.173 399.84 183.68C399.84 187.52 399.093 190.933 397.6 193.92C396.213 196.8 394.453 199.2 392.32 201.12C390.293 203.04 388.373 204.427 386.56 205.28C390.613 207.2 394.187 210.347 397.28 214.72C400.48 219.093 402.08 224.213 402.08 230.08C402.08 237.12 400.48 243.2 397.28 248.32C394.187 253.333 389.6 257.227 383.52 260C377.547 262.667 370.187 264 361.44 264H311.2ZM335.84 243.2H358.24C362.827 243.2 366.293 241.867 368.64 239.2C370.987 236.533 372.16 233.493 372.16 230.08C372.16 226.347 370.933 223.2 368.48 220.64C366.133 218.08 362.72 216.8 358.24 216.8H335.84V243.2ZM335.84 196.48H356.8C361.173 196.48 364.427 195.36 366.56 193.12C368.8 190.88 369.92 188 369.92 184.48C369.92 181.067 368.8 178.293 366.56 176.16C364.427 173.92 361.173 172.8 356.8 172.8H335.84V196.48ZM421.936 264C420.87 264 419.963 263.627 419.216 262.88C418.47 262.133 418.096 261.227 418.096 260.16V184.8C418.096 183.627 418.47 182.667 419.216 181.92C419.963 181.173 420.923 180.8 422.096 180.8H440.976C442.043 180.8 442.95 181.173 443.696 181.92C444.55 182.667 444.976 183.627 444.976 184.8V243.2L437.776 239.68L477.296 183.36C477.83 182.613 478.47 182.027 479.216 181.6C479.963 181.067 480.816 180.8 481.776 180.8H498.896C499.963 180.8 500.87 181.173 501.616 181.92C502.363 182.667 502.736 183.573 502.736 184.64V260C502.736 261.173 502.363 262.133 501.616 262.88C500.87 263.627 499.91 264 498.736 264H479.856C478.683 264 477.723 263.627 476.976 262.88C476.23 262.133 475.856 261.173 475.856 260V203.36L483.216 204.8L443.376 261.44C442.95 262.187 442.363 262.827 441.616 263.36C440.87 263.787 439.963 264 438.896 264H421.936ZM518.368 281.6C517.301 281.6 516.341 281.227 515.488 280.48C514.741 279.733 514.368 278.773 514.368 277.6V247.04C514.368 245.867 514.741 244.907 515.488 244.16C516.341 243.413 517.301 243.04 518.368 243.04H519.968C522.741 243.04 524.874 241.653 526.368 238.88C527.968 236.107 529.034 232.107 529.568 226.88C530.208 221.547 530.528 215.04 530.528 207.36V184.8C530.528 183.627 530.901 182.667 531.648 181.92C532.501 181.173 533.461 180.8 534.528 180.8H597.408C598.581 180.8 599.541 181.173 600.288 181.92C601.034 182.667 601.408 183.627 601.408 184.8V242.88H608.288C609.461 242.88 610.421 243.307 611.168 244.16C611.914 244.907 612.288 245.813 612.288 246.88V277.6C612.288 278.773 611.914 279.733 611.168 280.48C610.421 281.227 609.461 281.6 608.288 281.6H589.408C588.234 281.6 587.274 281.227 586.528 280.48C585.781 279.733 585.408 278.773 585.408 277.6V264H541.408V277.6C541.408 278.773 540.981 279.733 540.128 280.48C539.381 281.227 538.421 281.6 537.248 281.6H518.368ZM550.528 243.04L574.528 242.88V201.76H556.288V210.24C556.288 218.24 555.754 224.96 554.688 230.4C553.728 235.733 552.341 239.947 550.528 243.04ZM663.528 265.6C650.941 265.6 640.914 262.187 633.448 255.36C625.981 248.533 622.088 238.4 621.768 224.96C621.768 224.213 621.768 223.253 621.768 222.08C621.768 220.907 621.768 220 621.768 219.36C622.088 210.933 623.954 203.733 627.368 197.76C630.888 191.68 635.688 187.093 641.768 184C647.954 180.8 655.154 179.2 663.368 179.2C672.754 179.2 680.488 181.067 686.568 184.8C692.754 188.533 697.394 193.6 700.488 200C703.581 206.4 705.128 213.707 705.128 221.92V225.76C705.128 226.933 704.701 227.893 703.847 228.64C703.101 229.387 702.194 229.76 701.128 229.76H649.928C649.928 229.867 649.928 230.027 649.928 230.24C649.928 230.453 649.928 230.667 649.928 230.88C650.034 233.973 650.568 236.8 651.528 239.36C652.488 241.92 653.981 243.947 656.008 245.44C658.034 246.933 660.488 247.68 663.368 247.68C665.501 247.68 667.261 247.36 668.648 246.72C670.141 245.973 671.368 245.173 672.328 244.32C673.288 243.36 674.034 242.56 674.568 241.92C675.528 240.853 676.274 240.213 676.808 240C677.448 239.68 678.408 239.52 679.688 239.52H699.528C700.594 239.52 701.448 239.84 702.088 240.48C702.834 241.013 703.154 241.813 703.048 242.88C702.941 244.693 702.034 246.88 700.328 249.44C698.621 252 696.114 254.56 692.808 257.12C689.608 259.573 685.554 261.6 680.648 263.2C675.741 264.8 670.034 265.6 663.528 265.6ZM649.928 213.92H676.968V213.6C676.968 210.187 676.434 207.2 675.368 204.64C674.408 202.08 672.861 200.107 670.728 198.72C668.701 197.333 666.248 196.64 663.368 196.64C660.488 196.64 658.034 197.333 656.008 198.72C654.088 200.107 652.594 202.08 651.528 204.64C650.461 207.2 649.928 210.187 649.928 213.6V213.92ZM759.488 265.6C750.528 265.6 742.954 264.16 736.768 261.28C730.688 258.4 725.994 254.293 722.688 248.96C719.488 243.52 717.674 237.067 717.248 229.6C717.141 227.467 717.088 225.067 717.088 222.4C717.088 219.627 717.141 217.227 717.248 215.2C717.674 207.627 719.594 201.173 723.008 195.84C726.421 190.507 731.168 186.4 737.248 183.52C743.434 180.64 750.848 179.2 759.488 179.2C768.234 179.2 775.648 180.64 781.728 183.52C787.914 186.4 792.714 190.507 796.128 195.84C799.541 201.173 801.461 207.627 801.888 215.2C801.994 217.227 802.048 219.627 802.048 222.4C802.048 225.067 801.994 227.467 801.888 229.6C801.461 237.067 799.594 243.52 796.288 248.96C793.088 254.293 788.394 258.4 782.208 261.28C776.128 264.16 768.554 265.6 759.488 265.6ZM759.488 246.08C764.288 246.08 767.754 244.64 769.888 241.76C772.128 238.88 773.408 234.56 773.728 228.8C773.834 227.2 773.888 225.067 773.888 222.4C773.888 219.733 773.834 217.6 773.728 216C773.408 210.347 772.128 206.08 769.888 203.2C767.754 200.213 764.288 198.72 759.488 198.72C754.794 198.72 751.328 200.213 749.088 203.2C746.848 206.08 745.621 210.347 745.408 216C745.301 217.6 745.248 219.733 745.248 222.4C745.248 225.067 745.301 227.2 745.408 228.8C745.621 234.56 746.848 238.88 749.088 241.76C751.328 244.64 754.794 246.08 759.488 246.08ZM855.846 264C854.673 264 853.713 263.627 852.966 262.88C852.22 262.133 851.846 261.173 851.846 260V184.8C851.846 183.627 852.22 182.667 852.966 181.92C853.713 181.173 854.673 180.8 855.846 180.8H909.286C910.353 180.8 911.26 181.173 912.006 181.92C912.86 182.667 913.286 183.627 913.286 184.8V197.76C913.286 198.933 912.86 199.893 912.006 200.64C911.26 201.387 910.353 201.76 909.286 201.76H878.726V260C878.726 261.173 878.3 262.133 877.446 262.88C876.7 263.627 875.793 264 874.726 264H855.846ZM964.644 265.6C955.684 265.6 948.11 264.16 941.924 261.28C935.844 258.4 931.15 254.293 927.844 248.96C924.644 243.52 922.83 237.067 922.404 229.6C922.297 227.467 922.244 225.067 922.244 222.4C922.244 219.627 922.297 217.227 922.404 215.2C922.83 207.627 924.75 201.173 928.164 195.84C931.577 190.507 936.324 186.4 942.404 183.52C948.59 180.64 956.004 179.2 964.644 179.2C973.39 179.2 980.804 180.64 986.884 183.52C993.07 186.4 997.87 190.507 1001.28 195.84C1004.7 201.173 1006.62 207.627 1007.04 215.2C1007.15 217.227 1007.2 219.627 1007.2 222.4C1007.2 225.067 1007.15 227.467 1007.04 229.6C1006.62 237.067 1004.75 243.52 1001.44 248.96C998.244 254.293 993.55 258.4 987.364 261.28C981.284 264.16 973.71 265.6 964.644 265.6ZM964.644 246.08C969.444 246.08 972.91 244.64 975.044 241.76C977.284 238.88 978.564 234.56 978.884 228.8C978.99 227.2 979.044 225.067 979.044 222.4C979.044 219.733 978.99 217.6 978.884 216C978.564 210.347 977.284 206.08 975.044 203.2C972.91 200.213 969.444 198.72 964.644 198.72C959.95 198.72 956.484 200.213 954.244 203.2C952.004 206.08 950.777 210.347 950.564 216C950.457 217.6 950.404 219.733 950.404 222.4C950.404 225.067 950.457 227.2 950.564 228.8C950.777 234.56 952.004 238.88 954.244 241.76C956.484 244.64 959.95 246.08 964.644 246.08ZM1048.06 264C1046.99 264 1046.03 263.627 1045.18 262.88C1044.43 262.133 1044.06 261.173 1044.06 260V201.76H1019.74C1018.67 201.76 1017.71 201.387 1016.86 200.64C1016.11 199.893 1015.74 198.933 1015.74 197.76V184.8C1015.74 183.627 1016.11 182.667 1016.86 181.92C1017.71 181.173 1018.67 180.8 1019.74 180.8H1094.94C1096.01 180.8 1096.91 181.173 1097.66 181.92C1098.51 182.667 1098.94 183.627 1098.94 184.8V197.76C1098.94 198.933 1098.51 199.893 1097.66 200.64C1096.91 201.387 1096.01 201.76 1094.94 201.76H1070.62V260C1070.62 261.173 1070.25 262.133 1069.5 262.88C1068.75 263.627 1067.79 264 1066.62 264H1048.06ZM1149.96 265.6C1141 265.6 1133.42 264.16 1127.24 261.28C1121.16 258.4 1116.46 254.293 1113.16 248.96C1109.96 243.52 1108.14 237.067 1107.72 229.6C1107.61 227.467 1107.56 225.067 1107.56 222.4C1107.56 219.627 1107.61 217.227 1107.72 215.2C1108.14 207.627 1110.06 201.173 1113.48 195.84C1116.89 190.507 1121.64 186.4 1127.72 183.52C1133.9 180.64 1141.32 179.2 1149.96 179.2C1158.7 179.2 1166.12 180.64 1172.2 183.52C1178.38 186.4 1183.18 190.507 1186.6 195.84C1190.01 201.173 1191.93 207.627 1192.36 215.2C1192.46 217.227 1192.52 219.627 1192.52 222.4C1192.52 225.067 1192.46 227.467 1192.36 229.6C1191.93 237.067 1190.06 243.52 1186.76 248.96C1183.56 254.293 1178.86 258.4 1172.68 261.28C1166.6 264.16 1159.02 265.6 1149.96 265.6ZM1149.96 246.08C1154.76 246.08 1158.22 244.64 1160.36 241.76C1162.6 238.88 1163.88 234.56 1164.2 228.8C1164.3 227.2 1164.36 225.067 1164.36 222.4C1164.36 219.733 1164.3 217.6 1164.2 216C1163.88 210.347 1162.6 206.08 1160.36 203.2C1158.22 200.213 1154.76 198.72 1149.96 198.72C1145.26 198.72 1141.8 200.213 1139.56 203.2C1137.32 206.08 1136.09 210.347 1135.88 216C1135.77 217.6 1135.72 219.733 1135.72 222.4C1135.72 225.067 1135.77 227.2 1135.88 228.8C1136.09 234.56 1137.32 238.88 1139.56 241.76C1141.8 244.64 1145.26 246.08 1149.96 246.08ZM1212.25 264C1211.08 264 1210.12 263.627 1209.37 262.88C1208.63 262.133 1208.25 261.173 1208.25 260V184.8C1208.25 183.627 1208.63 182.667 1209.37 181.92C1210.12 181.173 1211.08 180.8 1212.25 180.8H1249.69C1262.39 180.8 1271.61 182.933 1277.37 187.2C1283.24 191.467 1286.17 197.227 1286.17 204.48C1286.17 208.533 1285.37 211.84 1283.77 214.4C1282.17 216.96 1280.04 219.093 1277.37 220.8C1280.89 222.613 1283.67 225.12 1285.69 228.32C1287.72 231.52 1288.73 235.2 1288.73 239.36C1288.73 247.04 1285.75 253.067 1279.77 257.44C1273.8 261.813 1264.52 264 1251.93 264H1212.25ZM1234.17 246.88H1250.49C1253.8 246.88 1256.47 246.293 1258.49 245.12C1260.52 243.84 1261.53 241.813 1261.53 239.04C1261.53 236.267 1260.57 234.293 1258.65 233.12C1256.84 231.84 1254.12 231.2 1250.49 231.2H1234.17V246.88ZM1234.17 213.28H1250.17C1253.48 213.28 1256.09 212.64 1258.01 211.36C1260.04 209.973 1261.05 207.947 1261.05 205.28C1261.05 202.507 1260.04 200.587 1258.01 199.52C1256.09 198.453 1253.48 197.92 1250.17 197.92H1234.17V213.28ZM1309.12 264C1308.06 264 1307.15 263.627 1306.4 262.88C1305.66 262.133 1305.28 261.227 1305.28 260.16V184.8C1305.28 183.627 1305.66 182.667 1306.4 181.92C1307.15 181.173 1308.11 180.8 1309.28 180.8H1328.16C1329.23 180.8 1330.14 181.173 1330.88 181.92C1331.74 182.667 1332.16 183.627 1332.16 184.8V243.2L1324.96 239.68L1364.48 183.36C1365.02 182.613 1365.66 182.027 1366.4 181.6C1367.15 181.067 1368 180.8 1368.96 180.8H1386.08C1387.15 180.8 1388.06 181.173 1388.8 181.92C1389.55 182.667 1389.92 183.573 1389.92 184.64V260C1389.92 261.173 1389.55 262.133 1388.8 262.88C1388.06 263.627 1387.1 264 1385.92 264H1367.04C1365.87 264 1364.91 263.627 1364.16 262.88C1363.42 262.133 1363.04 261.173 1363.04 260V203.36L1370.4 204.8L1330.56 261.44C1330.14 262.187 1329.55 262.827 1328.8 263.36C1328.06 263.787 1327.15 264 1326.08 264H1309.12ZM1432.44 264C1431.37 264 1430.41 263.627 1429.56 262.88C1428.81 262.133 1428.44 261.173 1428.44 260V201.76H1404.12C1403.05 201.76 1402.09 201.387 1401.24 200.64C1400.49 199.893 1400.12 198.933 1400.12 197.76V184.8C1400.12 183.627 1400.49 182.667 1401.24 181.92C1402.09 181.173 1403.05 180.8 1404.12 180.8H1479.32C1480.38 180.8 1481.29 181.173 1482.04 181.92C1482.89 182.667 1483.32 183.627 1483.32 184.8V197.76C1483.32 198.933 1482.89 199.893 1482.04 200.64C1481.29 201.387 1480.38 201.76 1479.32 201.76H1455V260C1455 261.173 1454.62 262.133 1453.88 262.88C1453.13 263.627 1452.17 264 1451 264H1432.44ZM1533.21 265.6C1525.32 265.6 1518.33 264.16 1512.25 261.28C1506.17 258.4 1501.32 254.24 1497.69 248.8C1494.17 243.253 1492.25 236.64 1491.93 228.96C1491.82 227.253 1491.77 225.12 1491.77 222.56C1491.77 219.893 1491.82 217.707 1491.93 216C1492.25 208.213 1494.17 201.6 1497.69 196.16C1501.21 190.613 1506.01 186.4 1512.09 183.52C1518.28 180.64 1525.32 179.2 1533.21 179.2C1540.57 179.2 1546.86 180.267 1552.09 182.4C1557.32 184.427 1561.58 186.987 1564.89 190.08C1568.2 193.173 1570.65 196.373 1572.25 199.68C1573.96 202.88 1574.86 205.707 1574.97 208.16C1575.08 209.227 1574.7 210.187 1573.85 211.04C1573 211.787 1572.04 212.16 1570.97 212.16H1550.65C1549.48 212.16 1548.57 211.893 1547.93 211.36C1547.29 210.827 1546.7 210.027 1546.17 208.96C1544.89 205.653 1543.24 203.307 1541.21 201.92C1539.29 200.533 1536.78 199.84 1533.69 199.84C1529.42 199.84 1526.12 201.227 1523.77 204C1521.53 206.773 1520.3 211.04 1520.09 216.8C1519.98 221.067 1519.98 224.853 1520.09 228.16C1520.3 234.027 1521.53 238.293 1523.77 240.96C1526.12 243.627 1529.42 244.96 1533.69 244.96C1537 244.96 1539.61 244.267 1541.53 242.88C1543.45 241.493 1545 239.147 1546.17 235.84C1546.7 234.773 1547.29 233.973 1547.93 233.44C1548.57 232.907 1549.48 232.64 1550.65 232.64H1570.97C1572.04 232.64 1573 233.067 1573.85 233.92C1574.7 234.667 1575.08 235.573 1574.97 236.64C1574.86 238.453 1574.33 240.587 1573.37 243.04C1572.41 245.387 1570.92 247.893 1568.89 250.56C1566.86 253.227 1564.2 255.733 1560.89 258.08C1557.69 260.32 1553.8 262.133 1549.21 263.52C1544.62 264.907 1539.29 265.6 1533.21 265.6ZM1642.95 264C1641.77 264 1640.81 263.627 1640.07 262.88C1639.32 262.133 1638.95 261.173 1638.95 260V237.28H1625.51V236.48C1614.2 236.48 1605.56 234.027 1599.59 229.12C1593.61 224.107 1590.63 217.333 1590.63 208.8C1590.63 199.627 1593.61 192.693 1599.59 188C1605.56 183.2 1613.88 180.8 1624.55 180.8H1662.47C1663.64 180.8 1664.6 181.173 1665.35 181.92C1666.09 182.667 1666.47 183.627 1666.47 184.8V260C1666.47 261.173 1666.09 262.133 1665.35 262.88C1664.6 263.627 1663.64 264 1662.47 264H1642.95ZM1591.27 264C1590.2 264 1589.35 263.68 1588.71 263.04C1588.07 262.4 1587.75 261.653 1587.75 260.8C1587.75 260.48 1587.8 260.16 1587.91 259.84C1588.12 259.413 1588.33 258.987 1588.55 258.56L1605.67 230.4L1629.03 234.4L1614.15 261.6C1613.72 262.24 1613.19 262.827 1612.55 263.36C1611.91 263.787 1611.16 264 1610.31 264H1591.27ZM1625.51 218.88H1639.43V199.2H1626.15C1622.2 199.2 1619.27 199.947 1617.35 201.44C1615.53 202.933 1614.63 205.387 1614.63 208.8C1614.63 211.787 1615.48 214.24 1617.19 216.16C1619 217.973 1621.77 218.88 1625.51 218.88Z" fill="white"/>
<defs>
<linearGradient id="paint0_linear_506_18" x1="0" y1="0" x2="1810.93" y2="1336.58" gradientUnits="userSpaceOnUse">
<stop stop-color="#1C1C34"/>
<stop offset="1" stop-color="#4E4CCC"/>
</linearGradient>
</defs>
</svg>
